<?xml version="1.0" encoding="utf-8"?>
<!-- Generator: Adobe Illustrator 19.2.0, SVG Export Plug-In . SVG Version: 6.00 Build 0)  -->
<svg version="1.1" id="Слой_1" xmlns="http://www.w3.org/2000/svg" xmlns:xlink="http://www.w3.org/1999/xlink" x="0px" y="0px"
	 viewBox="0 0 600 400" style="enable-background:new 0 0 600 400;" xml:space="preserve">
<style type="text/css">
	.st0{clip-path:url(#SVGID_2_);fill:#231F20;}
	.st1{clip-path:url(#SVGID_2_);fill:#FFFFFF;}
	.st2{clip-path:url(#SVGID_2_);}
	.st3{clip-path:url(#SVGID_4_);fill:#BCBEC0;}
	.st4{clip-path:url(#SVGID_4_);fill:#FFFFFF;}
</style>
<g>
	<g>
		<defs>
			<rect id="SVGID_1_" x="59.7" y="92.1" width="480.7" height="215.7"/>
		</defs>
		<clipPath id="SVGID_2_">
			<use xlink:href="#SVGID_1_"  style="overflow:visible;"/>
		</clipPath>
		<rect x="59.7" y="92.1" class="st0" width="480.7" height="215.7"/>
		<path class="st1" d="M522.7,151.3v-40.9h-46.1v15.5h28.9v25.5H522.7z M505.5,273.4h-28.9v15.5h46.1V248h-17.3V273.4z M77.3,288.9
			h46.1v-15.5H94.5V248H77.3V288.9z M94.5,125.8h28.9v-15.5H77.3v40.9h17.3V125.8z"/>
		<g class="st2">
			<defs>
				<rect id="SVGID_3_" x="59.7" y="92.1" width="480.7" height="215.7"/>
			</defs>
			<clipPath id="SVGID_4_">
				<use xlink:href="#SVGID_3_"  style="overflow:visible;"/>
			</clipPath>
			<path class="st3" d="M152.8,236.6l-5.6-1.5c-0.6,1.2-1.3,1.8-2,2H140c-0.7-0.4-2-1.2-2-1.6v-14.2c0.4-0.7,1.5-1.6,2-2h5.1
				c0.8,0.3,1.3,0.5,2,2l5.6-1.5c-0.4-1.1-0.8-1.7-1.1-2.1c-1.1-1.5-3.5-3.9-6.2-4l-0.1-3.5h-5.6v3.5c-1.1,0.1-2.5,0.6-3.4,1.1
				c-0.8,0.6-3,2.7-3.4,3.3c-0.6,0.9-0.8,1.9-0.8,3v14.4c0,1,0.2,2,0.8,3c0.7,0.9,2.5,2.8,3.5,3.4c0.9,0.6,2.2,0.9,3.3,0.9v3.9h5.6
				v-3.9c2.8-0.1,5.2-2.4,6.3-4C152,238.3,152.5,237.6,152.8,236.6L152.8,236.6z M191,235.4v-21.5h-5.8v21.5
				c-0.5,0.8-1.3,1.5-1.7,1.8h-6.5c-0.4-0.2-1.2-1.1-1.8-1.8v-21.4h-5.8v21.5c0,1,0.2,2,0.8,3c0.6,0.8,2.4,2.9,3.5,3.5
				c0.8,0.5,2,0.9,3.1,0.9h6.8c1.1,0,2.3-0.4,3.1-0.9c1-0.6,2.9-2.7,3.4-3.5C190.8,237.4,191,236.4,191,235.4 M230.3,242.5
				c0,0-10.5-14.4-10.7-14.5l10.5-14.1h-6.9c0,0-8.4,11.6-8.6,11.6h-0.5v-11.6h-5.8v28.6h5.8v-11.8h0.5l8.5,11.8H230.3z M267,235.4
				v-21.5h-5.8v21.5c-0.5,0.8-1.3,1.5-1.7,1.8h-6.5c-0.4-0.2-1.2-1.1-1.8-1.8v-21.4h-5.8v21.5c0,1,0.2,2,0.8,3
				c0.6,0.8,2.4,2.9,3.5,3.5c0.8,0.5,2,0.9,3.1,0.9h6.8c1.1,0,2.3-0.4,3.1-0.9c1-0.6,2.9-2.7,3.4-3.5
				C266.8,237.4,267,236.4,267,235.4 M305.5,224.8v-4c0-1-0.3-2.3-0.9-3.1c-0.5-0.6-1.9-2.1-2.6-2.6c-0.9-0.7-2.4-1.1-3.6-1.1h-13.9
				v28.6h5.8v-10.9h4.6l5.7,10.9h6.5c0,0-3.9-7.1-6.2-11.3c0.4-0.2,0.8-0.4,1.1-0.7c0.7-0.5,2.1-1.9,2.6-2.6
				C305.2,227,305.5,225.9,305.5,224.8 M299.7,224.9c-0.3,0.5-1.1,1.1-1.2,1.1h-8.1v-6.5h8.1c0.5,0.2,1,0.8,1.2,1.1V224.9z
				 M344.8,220.8c-0.4-1-0.9-2-1.6-3c-1.1-1.6-3.3-4-6.2-4h-6.2c-1.1,0-2.3,0.5-3.1,0.9c-1.1,0.7-3,2.7-3.5,3.4
				c-0.6,0.9-0.8,1.9-0.8,3v14.4c0,1,0.2,2,0.8,3c0.7,0.9,2.5,2.8,3.5,3.4c0.8,0.5,2,0.9,3.1,0.9h6.2c2.9,0,5.1-2.4,6.3-4.1
				c0.6-0.9,1.2-1.9,1.6-3l-5.4-1.3c-0.7,1.2-1.4,2.2-2.4,2.9h-6.1c-1.1-0.7-1.9-1.7-1.9-1.8v-14.2c0.4-0.7,1.4-1.6,1.9-1.9h6
				c1.3,0.9,1.9,1.7,2.5,3L344.8,220.8z M383.2,235.4v-21.5h-5.8v21.5c-0.5,0.8-1.3,1.5-1.7,1.8h-6.5c-0.4-0.2-1.2-1.1-1.8-1.8
				v-21.4h-5.8v21.5c0,1,0.2,2,0.8,3c0.6,0.8,2.4,2.9,3.5,3.5c0.8,0.5,2,0.9,3.1,0.9h6.8c1.1,0,2.3-0.4,3.1-0.9
				c1-0.6,2.9-2.7,3.4-3.5C383,237.4,383.2,236.4,383.2,235.4 M426,242.5v-28.6h-6.3c-2.1,4.2-4.2,8.7-6.3,13l-6.4-13h-6.3v28.6h5.8
				v-17.2l4.9,10.3h3.8c1.6-3.4,3.3-6.9,5-10.4v17.2H426z M467.8,242.5l-9.9-28.6h-6.4l-9.9,28.6h6.2c0.6-1.8,1.3-3.7,2-5.5h10
				l1.9,5.5H467.8z M457.9,231.4h-6.4c1-3.1,2.1-6.1,3.2-9.2L457.9,231.4z"/>
			<path class="st4" d="M153.8,187.4l-5.6-1.5c-0.6,1.2-1.3,1.9-2,2.1H141c-1-0.5-2-1.5-2-1.6v-14.2c0.4-0.7,1.5-1.7,2-2h5.2
				c0.6,0.3,1.3,0.7,2,2l5.6-1.5c-0.3-0.9-0.9-1.8-1.1-2.1c-1.1-1.5-3.4-4-6.2-4H141c-1.2,0-2.6,0.5-3.6,1.1c-0.8,0.6-3,2.7-3.4,3.3
				c-0.6,0.9-0.8,1.9-0.8,3v14.3c0,1,0.2,2,0.8,3c0.7,0.9,2.5,2.8,3.5,3.4c1,0.7,2.2,0.9,3.4,0.9h5.5c2.8,0,5.1-2.3,6.2-4
				C153.1,189,153.6,188.2,153.8,187.4L153.8,187.4z M191.7,186.2v-14.3c0-1-0.2-2.1-0.9-3c-0.7-0.8-2.4-2.8-3.4-3.4
				c-0.8-0.5-2-0.9-3.1-0.9h-6.5c-1.2,0-2.3,0.4-3.1,0.9c-1,0.6-2.9,2.7-3.5,3.4c-0.6,0.9-0.8,2-0.8,3v14.3c0,1,0.2,2,0.8,3
				c0.6,0.8,2.4,2.9,3.5,3.5c0.8,0.5,2,0.9,3.1,0.9h6.5c1.1,0,2.3-0.4,3.1-0.9c1-0.6,2.8-2.6,3.4-3.5
				C191.5,188.3,191.7,187.2,191.7,186.2 M185.8,186.2c-0.5,0.8-1.3,1.5-1.7,1.8h-6.2c-0.4-0.2-1.2-1-1.7-1.8V172
				c0.6-0.8,1.4-1.5,1.8-1.8h6.2c0.5,0.3,1.3,1.1,1.7,1.8V186.2z M227.3,193.3v-5.6h-12.2v-23h-5.8v28.6H227.3z M261.5,193.3v-5.6
				h-12.2v-23h-5.8v28.6H261.5z M296,193.3v-5.6h-12.5v-6h12.1v-5.6h-12.1v-5.9H296v-5.6h-18.3v28.6H296z M334.2,187.4l-5.6-1.5
				c-0.6,1.2-1.3,1.9-2,2.1h-5.3c-1-0.5-2-1.5-2-1.6v-14.2c0.4-0.7,1.5-1.7,2-2h5.2c0.6,0.3,1.3,0.7,2,2l5.6-1.5
				c-0.3-0.9-0.9-1.8-1.1-2.1c-1.1-1.5-3.4-4-6.2-4h-5.4c-1.2,0-2.6,0.5-3.6,1.1c-0.8,0.6-3,2.7-3.4,3.3c-0.6,0.9-0.8,1.9-0.8,3
				v14.3c0,1,0.2,2,0.8,3c0.7,0.9,2.5,2.8,3.5,3.4c1,0.7,2.2,0.9,3.4,0.9h5.5c2.8,0,5.1-2.3,6.2-4
				C333.4,189,333.9,188.2,334.2,187.4L334.2,187.4z M370.2,170.3v-5.6h-20.8v5.6h7.5v23h5.9v-23H370.2z M392.3,164.8h-5.9v28.6h5.9
				V164.8z M432.4,164.8h-6.1c0.3,0-6.2,20.4-6.2,20.4l-6.2-20.4h-6.1l9.1,28.6h6.4L432.4,164.8z M466.7,193.3v-5.6h-12.5v-6h12.1
				v-5.6h-12.1v-5.9h12.5v-5.6h-18.3v28.6H466.7z"/>
		</g>
	</g>
</g>
</svg>
