<?xml version="1.0" encoding="utf-8"?>
<!-- Generator: Adobe Illustrator 19.2.0, SVG Export Plug-In . SVG Version: 6.00 Build 0)  -->
<svg version="1.1" id="Слой_1" xmlns="http://www.w3.org/2000/svg" xmlns:xlink="http://www.w3.org/1999/xlink" x="0px" y="0px"
	 viewBox="0 0 600 400" style="enable-background:new 0 0 600 400;" xml:space="preserve">
<style type="text/css">
	.st0{fill:#231F20;}
	.st1{fill-rule:evenodd;clip-rule:evenodd;fill:#C30075;}
	.st2{fill-rule:evenodd;clip-rule:evenodd;fill:#D60080;}
	.st3{fill-rule:evenodd;clip-rule:evenodd;fill:#B00069;}
	.st4{fill-rule:evenodd;clip-rule:evenodd;fill:#EB008B;}
</style>
<g>
	<g>
		<path class="st0" d="M466.3,266.6l0-1.4l-15.2-0.1l0,1.4l6.8,0l-0.1,20.5l1.5,0l0.1-20.5L466.3,266.6z M446.3,286.9l0.1-21.8
			l-1.9,0l-11.8,17.7c-0.7,1-1.3,2.4-1.3,2.4l-0.1,0c0,0,0.1-1.5,0.1-2.8l0.1-17.4l-1.5,0l-0.1,21.8l1.7,0l12-18
			c0.7-1,1.3-2.4,1.3-2.4h0.1c0,0-0.1,1.5-0.1,2.7l-0.1,17.7L446.3,286.9z M408.5,285.6c1.8,0.9,4.4,1.5,7.1,1.5
			c4.6,0,8.5-2.1,8.5-6.2c0-3.3-2.6-5.2-5.3-5.6l0-0.1c2.7-0.4,4.5-2.3,4.5-4.9c0-3.9-3.5-5.8-7.5-5.8c-2.5,0-5.1,0.6-6.7,1.5
			l0.7,1.2c1.5-0.8,3.9-1.3,6-1.3c3.1,0,5.9,1.3,5.9,4.4c0,2.7-2.3,4.4-6.5,4.4l-3,0l0,1.3l3.2,0c4.9,0,7.2,2.1,7.2,4.9
			c0,3.4-3.3,4.9-7,4.9c-2.5,0-5-0.6-6.4-1.4L408.5,285.6z M403.5,286.7l0.1-21.8l-1.5,0l-0.1,9.9l-11.7-0.1l0.1-9.9l-1.5,0
			l-0.1,21.8l1.5,0l0.1-10.5l11.7,0.1l-0.1,10.5L403.5,286.7z M380.3,284.7c-1,0.5-3.4,0.9-5.5,0.9c-4.6,0-6.7-2.1-6.7-5.1
			c0-5.6,6.7-5.8,12.3-6.1L380.3,284.7z M381.8,285.5l0.1-14.5c0-4.9-3.3-6.6-7.6-6.6c-2.3,0-4.8,0.7-6.3,1.5l0.5,1.3
			c1.3-0.7,3.8-1.4,5.8-1.3c3.4,0,6.1,1.2,6.1,5.3l0,2.1c-6.6,0.3-13.8,1-13.8,7.5c0,3.8,2.8,6.4,8.3,6.5
			C377.4,287,380.4,286.3,381.8,285.5 M360.3,275.2c0,5.8-3,10.1-8.5,10.1c-1.7,0-3.8-0.4-4.6-0.7l0.1-18.1c0.9-0.4,2.8-0.9,4.7-0.9
			C357.3,265.6,360.3,269.6,360.3,275.2 M361.8,275.2c0-6.4-3.6-11-9.9-11c-2.3,0-4.9,0.7-6.2,1.5l-0.2,29.5l1.5,0l0-9.1
			c0.9,0.3,2.8,0.7,4.6,0.7C358.1,286.7,361.8,281.9,361.8,275.2 M341,258.5l0-1.5l-18.1-0.1l0,1.5l8.2,0.1l-0.2,27.9l1.6,0
			l0.2-27.9L341,258.5z M535.9,213l-1.2-0.2c-0.5,2.4-1.6,3.6-3.8,3.6c-2.2,0-3.3-1.2-3.7-3.7l-1.3,0.2c0.2,3,2.1,4.9,5,4.9
			C533.7,217.8,535.6,216,535.9,213 M539,242.3l0.1-21.8l-1.9,0l-11.8,17.7c-0.7,1-1.3,2.4-1.3,2.4l-0.1,0c0,0,0.1-1.5,0.1-2.8
			l0.1-17.4l-1.5,0l-0.1,21.8l1.7,0l12-18c0.7-1,1.3-2.4,1.3-2.4l0.1,0c0,0-0.1,1.5-0.1,2.7l-0.1,17.7L539,242.3z M508.7,235.8
			c0,3.4-2.1,5.4-6.2,5.3c-1.7,0-3.6-0.5-4.6-1l0.1-9.3c1-0.3,3-0.6,4.2-0.6C506.8,230.3,508.7,232.4,508.7,235.8 M510.2,235.8
			c0-4-2.6-6.9-8-6.9c-1.3,0-3.2,0.3-4.2,0.6l0.1-9.3l-1.5,0l-0.1,20.7c1.6,0.9,3.9,1.5,6.1,1.5
			C507.4,242.5,510.2,239.9,510.2,235.8 M515.9,220.3l-1.5,0l-0.1,21.8l1.5,0L515.9,220.3z M489.6,242l0.1-21.8l-1.5,0l-0.1,9.9
			l-11.8-0.1l0.1-9.9l-1.5,0l-0.1,21.8l1.5,0l0.1-10.5l11.8,0.1L488,242L489.6,242z M467.4,230.6c0,5.8-3,10.1-8.5,10.1
			c-1.7,0-3.8-0.4-4.6-0.7l0.1-18.1c0.9-0.4,2.8-0.9,4.7-0.9C464.4,221,467.4,225,467.4,230.6 M468.9,230.6c0-6.4-3.6-11-9.9-11
			c-2.3,0-4.9,0.7-6.2,1.5l-0.2,29.5l1.5,0l0.1-9.1c0.9,0.3,2.7,0.7,4.6,0.7C465.2,242.2,468.8,237.3,468.9,230.6 M447.4,219.9
			l-1.6,0c-1.1,7.2-3.6,13.8-6.9,20.2h-0.1c-3.3-6.6-6.2-13.5-7.4-20.3l-1.6,0c1.4,7.7,4.7,15,8.2,21.9l-4.5,8.7l1.7,0l4.8-9.5
			C443.5,234.3,446.1,227.5,447.4,219.9 M426.6,221.2l0-1.4l-15.2-0.1l0,1.4l6.9,0l-0.1,20.5l1.5,0l0.1-20.5L426.6,221.2z
			 M406,235.2c0,3.4-2.1,5.4-6.2,5.3c-1.7,0-3.6-0.5-4.6-1l0.1-9.3c1-0.3,3-0.6,4.2-0.6C404.1,229.7,406,231.9,406,235.2
			 M407.5,235.2c0-4-2.6-6.9-8.1-6.9c-1.3,0-3.2,0.3-4.2,0.6l0.1-9.3l-1.5,0l-0.1,20.7c1.6,0.9,3.9,1.5,6.1,1.5
			C404.7,241.9,407.5,239.3,407.5,235.2 M387.7,241.4l-2.4-21.8l-9.7-0.1l-0.9,5.5c-0.9,6-1.8,13-7.5,15.5l0.6,1.3
			c6.7-2.9,7.4-10.6,8.4-16.6l0.7-4.3l7,0l2.2,20.5L387.7,241.4z M364.4,219.5l-1.6,0c-1.1,7.2-3.6,13.8-6.9,20.3l-0.1,0
			c-3.3-6.6-6.2-13.5-7.4-20.3l-1.6,0c1.4,7.7,4.7,15,8.2,21.9l-4.6,8.7l1.7,0l4.8-9.5C360.4,233.8,363.1,227,364.4,219.5
			 M343.6,241.2l-5.8-9.6c-2-3.3-4.7-5.3-8.3-6.1l13.7-13.6l-2.2,0l-13.7,13.9l-0.1,0l0.1-14l-1.6,0l-0.2,29.3l1.6,0l0.1-14.5
			c4.1,0,7.3,2.4,9.2,5.5l5.5,9.1L343.6,241.2z M418.6,194.8l-15.7-0.1c4.2-3.4,5.2-10,5.9-14.8l0.7-4.3l7,0L418.6,194.8z
			 M421.6,195.2l-1.5-0.6l-2.2-20.4l-9.7-0.1l-0.8,5.5c-0.7,4.8-1.7,11.8-7,15.4l0.2,6.8l1.3,0l0.2-5.9l18,0.1l0.1,5.9l1.3,0
			L421.6,195.2z M395.3,195.9l0.1-21.8l-1.5,0l-0.1,9.9l-11.7-0.1l0.1-9.9l-1.6,0l-0.1,21.8l1.5,0l0.1-10.5l11.7,0.1l-0.1,10.5
			L395.3,195.9z M373.1,184.9c0,5.6-2.4,10-7.3,9.9c-4.9,0-7.2-4.4-7.2-10c0-5.6,2.4-9.9,7.3-9.9
			C370.8,174.9,373.1,179.3,373.1,184.9 M374.6,184.9c0-6.4-2.9-11.3-8.7-11.4c-5.8,0-8.8,4.8-8.8,11.2c0,6.4,2.9,11.4,8.7,11.4
			C371.6,196.2,374.6,191.3,374.6,184.9 M337.5,192.3c-7.1,0-11.4-5-11.4-11.4c0-6.4,4.4-11.4,11.5-11.3L337.5,192.3z M350.5,181
			c0,6.4-4.4,11.4-11.5,11.3l0.1-22.8C346.3,169.6,350.5,174.6,350.5,181 M352.1,181c0-7.1-4.9-12.7-13-12.8l0-2.8l-1.5,0l0,2.8
			c-8.1,0-13.1,5.6-13.1,12.6c0,7.1,4.9,12.7,13,12.8l0,2.8l1.5,0l0-2.8C347.1,193.7,352.1,188.1,352.1,181"/>
		<polygon class="st1" points="240.1,324.2 180.8,346.3 180.3,346.5 120.5,324.2 179.2,302.3 180.3,301.9 		"/>
		<polygon class="st2" points="106.6,228.2 126.6,281.8 126.6,281.8 94.1,314.3 94.1,314.3 84.3,287.9 		"/>
		<polygon class="st3" points="240,132 266.5,142 266.5,142 234,174.5 234,174.5 180.4,154.4 		"/>
		<polygon class="st1" points="254,228.2 234,174.5 266.5,142 266.5,142 272.7,158.6 266.9,143.1 276.3,168.4 		"/>
		<polygon class="st3" points="120.5,324.2 94.1,314.3 126.6,281.8 180.3,301.9 		"/>
		<polygon class="st1" points="94.1,142 126.6,174.5 126.6,174.5 106.6,228.2 84.3,168.4 		"/>
		<polygon class="st1" points="266.5,314.3 234,281.8 254,228.2 276.3,287.9 		"/>
		<polygon class="st3" points="94.1,142 120.8,132 180.4,154.4 126.6,174.5 		"/>
		<polygon class="st2" points="276.3,168.4 298.6,228.2 276.3,287.9 254,228.2 		"/>
		<polygon class="st3" points="180.3,301.8 234,281.8 234,281.8 266.5,314.3 240.6,324 240.1,324.2 		"/>
		<polygon class="st3" points="84.3,168.4 106.6,228.2 84.3,287.9 61.9,228.2 62,228.3 84.3,168.4 		"/>
		<polygon class="st2" points="149.4,115.6 180.3,127.8 180.4,154.4 167.1,149.4 		"/>
		<polygon class="st1" points="217.4,54.8 217.5,111 217.5,111.5 180.4,154.4 180.3,98.7 180.3,97.7 		"/>
		<polygon class="st2" points="61.9,228.2 65,168.8 94.1,142 84.3,168.4 84.3,168.4 62,228.3 		"/>
		<polygon class="st3" points="266.5,142 266.5,142 295.6,168.8 298.7,228.2 266.9,143.1 272.7,158.6 		"/>
		<polygon class="st4" points="180.4,154.4 149.4,115.6 180.3,127.8 		"/>
		<polygon class="st2" points="180.4,154.4 217.4,54.8 217.5,111.5 		"/>
		<polygon class="st4" points="234,174.5 240,132 266.5,142 		"/>
		<polygon class="st4" points="120.5,324.2 126.6,281.8 94.1,314.3 		"/>
		<polygon class="st4" points="106.6,228.2 62,228.3 84.3,168.4 		"/>
		<polygon class="st4" points="254,228.2 276.3,287.9 234,281.8 		"/>
		<polygon class="st4" points="254,228.2 298.6,228.2 276.3,168.4 		"/>
	</g>
</g>
</svg>
