<?xml version="1.0" encoding="utf-8"?>
<!-- Generator: Adobe Illustrator 19.2.0, SVG Export Plug-In . SVG Version: 6.00 Build 0)  -->
<svg version="1.1" id="Слой_1" xmlns="http://www.w3.org/2000/svg" xmlns:xlink="http://www.w3.org/1999/xlink" x="0px" y="0px"
	 viewBox="0 0 600 400" style="enable-background:new 0 0 600 400;" xml:space="preserve">
<style type="text/css">
	.st0{fill-rule:evenodd;clip-rule:evenodd;fill:#C30075;}
	.st1{fill-rule:evenodd;clip-rule:evenodd;fill:#D60080;}
	.st2{fill-rule:evenodd;clip-rule:evenodd;fill:#B00069;}
	.st3{fill-rule:evenodd;clip-rule:evenodd;fill:#EB008B;}
	.st4{fill:#231F20;}
</style>
<g>
	<polygon class="st0" points="240.4,324.1 181.1,346.3 180.6,346.5 120.7,324.1 179.5,302.2 180.6,301.8 240.4,324.1 	"/>
	<polygon class="st1" points="106.7,228 126.8,281.7 126.8,281.7 94.3,314.3 94.2,314.3 84.4,287.8 106.7,228 	"/>
	<polygon class="st2" points="240.3,131.7 266.9,141.6 266.9,141.7 234.3,174.2 234.3,174.2 180.6,154.1 240.3,131.7 	"/>
	<polygon class="st0" points="254.4,228 234.3,174.2 266.9,141.7 266.9,141.7 273.1,158.3 267.3,142.8 276.7,168.1 254.4,228 	"/>
	<polygon class="st2" points="120.7,324.1 94.3,314.3 126.8,281.7 180.6,301.8 120.7,324.1 	"/>
	<polygon class="st0" points="94.3,141.6 126.8,174.2 126.8,174.2 106.7,228 84.4,168.1 94.3,141.6 	"/>
	<polygon class="st0" points="266.9,314.2 234.3,281.7 254.4,228 276.7,287.8 266.9,314.2 	"/>
	<polygon class="st2" points="94.3,141.6 120.9,131.7 180.6,154.1 126.8,174.2 94.3,141.6 	"/>
	<polygon class="st1" points="276.7,168.1 299.1,228 276.7,287.8 254.4,228 276.7,168.1 	"/>
	<polygon class="st2" points="180.5,301.8 234.3,281.7 234.3,281.7 266.9,314.2 240.9,323.9 240.4,324.1 180.5,301.8 	"/>
	<polygon class="st2" points="84.4,168.1 106.7,228 84.4,287.8 62,228 62.1,228.1 84.4,168.1 84.4,168.1 	"/>
	<polygon class="st1" points="149.7,115.2 180.6,127.4 180.6,154.1 167.3,149.1 149.7,115.2 	"/>
	<polygon class="st0" points="217.7,54.3 217.8,110.7 217.8,111.1 180.6,154.1 180.5,98.3 180.5,97.3 217.7,54.3 	"/>
	<polygon class="st1" points="62,228 65.1,168.5 94.3,141.6 84.4,168.1 84.4,168.1 62.1,228.1 62,228 	"/>
	<polygon class="st2" points="266.9,141.7 266.9,141.7 266.9,141.7 266.9,141.7 266.9,141.7 296.1,168.5 299.1,228 267.3,142.8 
		273.1,158.3 266.9,141.7 	"/>
	<polygon class="st3" points="180.6,154.1 149.7,115.2 180.6,127.4 180.6,154.1 	"/>
	<polygon class="st1" points="180.6,154.1 217.7,54.3 217.8,111.1 180.6,154.1 	"/>
	<polygon class="st3" points="234.3,174.2 240.3,131.7 266.9,141.6 234.3,174.2 	"/>
	<polygon class="st3" points="120.7,324.1 126.8,281.7 94.3,314.3 120.7,324.1 	"/>
	<polygon class="st3" points="106.7,228 62.1,228.1 84.4,168.1 106.7,228 	"/>
	<path class="st4" d="M350.4,167.7v-1.5H332v1.5h8.4v28.5h1.7v-28.5H350.4L350.4,167.7z M371.8,196.1v-15.4c0-4.7-3.3-7.3-8.4-7.3
		c-2.1,0-4.3,0.7-5.9,1.6v-11.4h-1.6v32.5h1.6v-19.6c1.6-1,3.9-1.7,5.9-1.7c4.1,0,6.8,1.9,6.8,5.9v15.4H371.8L371.8,196.1z
		 M395.3,182.4c0-5.8-3.4-9-8.3-9c-5.7,0-9.2,4.7-9.2,11.5c0,7.7,4.1,11.6,10.2,11.6c2.7,0,5.2-0.7,6.6-1.5l-0.6-1.3
		c-1.4,0.8-3.7,1.4-6,1.4c-5.1,0-8.4-3.1-8.7-9.1l16-2.4C395.3,183.2,395.3,182.8,395.3,182.4L395.3,182.4z M393.8,182.5l-14.5,2.2
		c0.1-5.8,2.9-9.8,7.7-9.8C391,174.8,393.8,177.2,393.8,182.5L393.8,182.5z M430.5,195l-0.6-1.4c-1.1,0.7-3.2,1.4-5.7,1.4
		c-5.2,0-9.9-4.2-9.9-13.9c0-9.7,4.6-13.9,9.9-13.9c2.4,0,4.6,0.7,5.7,1.4l0.6-1.4c-1.3-0.9-3.6-1.5-6.3-1.5
		c-6.2,0-11.6,4.8-11.6,15.4c0,10.5,5.4,15.4,11.6,15.4C426.9,196.5,429.2,195.9,430.5,195L430.5,195z M451.7,195v-21.2h-1.6v20.3
		c-1.1,0.5-3.4,1-5.9,1c-4.2,0-6.3-2-6.3-6v-15.3h-1.6v15.3c0,5,2.9,7.4,7.9,7.4C447.3,196.5,450.2,195.8,451.7,195L451.7,195z
		 M460.5,196.1v-32.5h-1.6v32.5H460.5L460.5,196.1z M476.1,196.1v-1.4c-0.3,0.1-0.8,0.2-1.3,0.2c-2.1,0-4-1.1-4-3.8v-16h5.3v-1.2
		h-5.3v-6.4l-1.5,0.7v5.7h-3.6v1.2h3.6v16c0,3.5,2.4,5.2,5.5,5.2C475.4,196.3,475.8,196.3,476.1,196.1L476.1,196.1z M511.8,173.5
		c-0.5,0-1.1-0.1-1.7-0.1c-2.6,0-5.5,0.7-7.3,1.5v21.2h1.6v-20.3c1.3-0.6,3.6-1,5.6-1c0.6,0,1.2,0,1.4,0.1L511.8,173.5L511.8,173.5z
		 M531.2,195v-14.9c0-5-3.4-6.7-7.8-6.7c-2.4,0-4.9,0.7-6.5,1.5l0.5,1.3c1.4-0.7,3.9-1.4,5.9-1.4c3.5,0,6.2,1.2,6.2,5.3v2.2
		c-6.7,0.4-14.1,1.1-14.1,7.7c0,3.9,2.9,6.5,8.5,6.5C526.7,196.5,529.7,195.9,531.2,195L531.2,195z M529.6,194.2c-1,0.5-3.5,1-5.6,1
		c-4.7,0-6.9-2.1-6.9-5.1c0-5.7,6.8-6,12.5-6.3V194.2L529.6,194.2z M540,196.1v-32.5h-1.6v32.5H540L540,196.1z M350.4,214.8v-1.5
		H332v1.5h8.4v28.5h1.7v-28.5H350.4L350.4,214.8z M363,220.6c-0.5,0-1.1-0.1-1.7-0.1c-2.6,0-5.5,0.7-7.3,1.5v21.2h1.6v-20.3
		c1.3-0.6,3.6-1,5.6-1c0.6,0,1.2,0,1.4,0.1L363,220.6L363,220.6z M382.5,242.1v-14.9c0-5-3.4-6.7-7.8-6.7c-2.4,0-4.9,0.7-6.5,1.5
		l0.5,1.3c1.4-0.7,3.9-1.4,5.9-1.4c3.5,0,6.2,1.2,6.2,5.3v2.2c-6.7,0.4-14.1,1.1-14.1,7.7c0,3.9,2.9,6.5,8.5,6.5
		C377.9,243.7,381,243,382.5,242.1L382.5,242.1z M380.9,241.3c-1,0.5-3.5,0.9-5.6,0.9c-4.7,0-6.9-2.1-6.9-5.1c0-5.7,6.8-6,12.5-6.3
		V241.3L380.9,241.3z M405.2,243.3v-15.4c0-4.6-3-7.3-8.2-7.3c-2.9,0-5.6,0.6-7.6,1.5v21.2h1.6v-20.3c1.4-0.5,3.5-1,6-1
		c4.5,0,6.7,2.3,6.7,5.9v15.4H405.2L405.2,243.3z M424.6,237.7c0-3.9-2.9-5.3-6.5-6.6c-2.9-1.1-5.1-2.1-5.1-5c0-2.3,1.9-4.1,5.2-4.1
		c1.9,0,3.8,0.7,4.9,1.4l0.7-1.3c-1.3-0.9-3.3-1.5-5.6-1.5c-4.3,0-6.7,2.5-6.7,5.5c0,3.7,2.6,5.1,6.1,6.4c3.1,1.2,5.5,2.3,5.5,5.3
		c0,2.8-2.4,4.5-6,4.5c-1.9,0-4.1-0.7-5.4-1.4l-0.7,1.3c1.6,0.9,4.1,1.5,6.1,1.5C421.6,243.7,424.6,241.3,424.6,237.7L424.6,237.7z
		 M432.9,214.3c0-0.7-0.6-1.3-1.3-1.3c-0.7,0-1.3,0.6-1.3,1.3c0,0.7,0.6,1.3,1.3,1.3C432.3,215.6,432.9,215,432.9,214.3L432.9,214.3
		z M432.4,243.3V221h-1.6v22.3H432.4L432.4,243.3z M448,243.3v-1.4c-0.3,0.1-0.8,0.2-1.3,0.2c-2.1,0-4-1.1-4-3.8v-16h5.3V221h-5.3
		v-6.4l-1.5,0.7v5.7h-3.6v1.2h3.6v16c0,3.5,2.4,5.2,5.5,5.2C447.3,243.4,447.7,243.4,448,243.3L448,243.3z M351.1,261.9v-1.5h-14.7
		v30h1.6v-14.8h12.2v-1.5H338v-12.2H351.1L351.1,261.9z M373.5,279.2c0-6.6-3-11.5-8.9-11.5c-5.9,0-8.9,5-8.9,11.5
		c0,6.6,3,11.6,8.9,11.6C370.5,290.8,373.5,285.8,373.5,279.2L373.5,279.2z M371.9,279.2c0,5.7-2.4,10.2-7.4,10.2
		c-5,0-7.4-4.5-7.4-10.2c0-5.7,2.4-10.1,7.4-10.1C369.6,269.1,371.9,273.5,371.9,279.2L371.9,279.2z M394.9,289.3v-21.2h-1.6v20.3
		c-1.1,0.5-3.3,1-5.9,1c-4.2,0-6.3-1.9-6.3-6v-15.3h-1.6v15.3c0,5,2.9,7.5,7.9,7.5C390.5,290.8,393.4,290.1,394.9,289.3L394.9,289.3
		z M417.7,290.4V275c0-4.6-3-7.3-8.2-7.3c-2.9,0-5.6,0.6-7.6,1.5v21.2h1.6v-20.3c1.4-0.5,3.5-1,6-1c4.5,0,6.7,2.3,6.7,5.9v15.4
		H417.7L417.7,290.4z M440.2,289.3v-31.4h-1.6v10.7c-0.9-0.3-2.8-0.7-4.7-0.7c-6.5,0-10.2,5-10.2,11.7c0,6.6,3.7,11.2,10.1,11.2
		C436.4,290.8,439.1,290,440.2,289.3L440.2,289.3z M438.6,288.4c-0.7,0.5-3,1-4.8,1c-5.5,0-8.6-4-8.6-9.8c0-5.9,3-10.3,8.6-10.3
		c1.7,0,3.8,0.4,4.7,0.7V288.4L438.6,288.4z M461.6,289.3v-14.9c0-5-3.4-6.7-7.8-6.7c-2.4,0-4.9,0.7-6.5,1.5l0.5,1.3
		c1.4-0.7,3.9-1.4,5.9-1.4c3.5,0,6.2,1.2,6.2,5.3v2.2c-6.7,0.4-14.1,1.1-14.1,7.7c0,3.9,2.9,6.5,8.5,6.5
		C457.1,290.8,460.1,290.1,461.6,289.3L461.6,289.3z M460,288.4c-1,0.5-3.5,1-5.6,1c-4.7,0-6.9-2.1-6.9-5.1c0-5.7,6.8-6,12.5-6.3
		V288.4L460,288.4z M477,290.4V289c-0.3,0.1-0.8,0.2-1.3,0.2c-2.1,0-4-1.1-4-3.8v-16h5.3v-1.2h-5.3v-6.4l-1.5,0.7v5.7h-3.6v1.2h3.6
		v16c0,3.5,2.4,5.2,5.5,5.2C476.3,290.6,476.7,290.5,477,290.4L477,290.4z M484.7,261.4c0-0.7-0.6-1.3-1.3-1.3
		c-0.7,0-1.3,0.6-1.3,1.3c0,0.7,0.6,1.3,1.3,1.3C484.1,262.7,484.7,262.2,484.7,261.4L484.7,261.4z M484.1,290.4v-22.3h-1.6v22.3
		H484.1L484.1,290.4z M508.3,279.2c0-6.6-3-11.5-8.9-11.5c-5.9,0-8.9,5-8.9,11.5c0,6.6,3,11.6,8.9,11.6
		C505.3,290.8,508.3,285.8,508.3,279.2L508.3,279.2z M506.7,279.2c0,5.7-2.4,10.2-7.4,10.2c-5,0-7.4-4.5-7.4-10.2
		c0-5.7,2.4-10.1,7.4-10.1C504.4,269.1,506.7,273.5,506.7,279.2L506.7,279.2z M530.1,290.4V275c0-4.6-3-7.3-8.2-7.3
		c-2.9,0-5.6,0.6-7.6,1.5v21.2h1.6v-20.3c1.4-0.5,3.5-1,6-1c4.5,0,6.7,2.3,6.7,5.9v15.4H530.1L530.1,290.4z"/>
	<polygon class="st3" points="254.4,228 276.7,287.8 234.3,281.7 254.4,228 	"/>
	<polygon class="st3" points="254.4,228 299.1,228 276.7,168.1 254.4,228 	"/>
	<path class="st4" d="M496.8,195v-21.2h-1.6v20.3c-1.1,0.5-3.3,1-5.9,1c-4.2,0-6.3-1.9-6.3-6v-15.3h-1.6v15.3c0,5,2.9,7.5,7.9,7.5
		C492.4,196.5,495.2,195.8,496.8,195L496.8,195z"/>
</g>
</svg>
