<?xml version="1.0" encoding="utf-8"?>
<!-- Generator: Adobe Illustrator 19.2.0, SVG Export Plug-In . SVG Version: 6.00 Build 0)  -->
<svg version="1.1" id="Слой_1" xmlns="http://www.w3.org/2000/svg" xmlns:xlink="http://www.w3.org/1999/xlink" x="0px" y="0px"
	 viewBox="0 0 600 400" style="enable-background:new 0 0 600 400;" xml:space="preserve">
<style type="text/css">
	.st0{fill-rule:evenodd;clip-rule:evenodd;fill:#005160;}
	.st1{fill-rule:evenodd;clip-rule:evenodd;fill:#BDC9CF;stroke:#BDC9CF;}
	.st2{fill-rule:evenodd;clip-rule:evenodd;fill:#F8CA2B;}
	.st3{fill-rule:evenodd;clip-rule:evenodd;fill:url(#SVGID_1_);}
	.st4{fill-rule:evenodd;clip-rule:evenodd;fill:#9EA4AB;}
	.st5{fill-rule:evenodd;clip-rule:evenodd;fill:#C5AA36;}
	.st6{fill-rule:evenodd;clip-rule:evenodd;fill:#FFFFFF;}
	.st7{fill-rule:evenodd;clip-rule:evenodd;fill:none;stroke:#FFFFFF;stroke-width:2.000000e-02;stroke-linejoin:round;}
</style>
<g>
	<g>
		<g>
			<polygon class="st0" points="119.6,283 119.6,320.4 126.9,320.4 126.9,289.1 127,289.1 133.8,320.4 141.5,320.4 148.5,289.1 
				148.5,289.1 148.5,320.4 155.8,320.4 155.8,283 144.5,283 137.9,312.5 137.7,312.5 131,283 			"/>
			<polygon class="st0" points="161.8,283 161.8,320.4 190.3,320.4 190.3,314 169.6,314 169.6,303.6 187.8,303.6 187.8,297.2 
				169.6,297.2 169.6,289.4 189.5,289.4 189.5,283 			"/>
			<path class="st0" d="M200.4,283v11.1c0,9.5-0.8,14.5-4.2,19.8h-3.3v14.3h7.3v-7.9h22v7.9h7.3V314h-3.7v-31H200.4z M203.9,314
				c3.2-5.3,3.8-9.7,3.8-19.3v-5.2h10.2V314H203.9z"/>
			<polygon class="st0" points="241,283 233.2,283 233.2,320.4 241.6,320.4 256.8,293.8 256.9,293.8 256.9,320.4 264.7,320.4 
				264.7,283 255.9,283 241,309.1 241,309.1 			"/>
			<path class="st0" d="M281.5,283l-13.3,37.4h8.2l2.6-7.7h13.8l2.4,7.7h8.5L290.6,283H281.5z M285.9,291.5h0.1l5.1,14.8h-10
				L285.9,291.5z"/>
			<path class="st0" d="M311.1,283v21.6c0,8.1-0.9,10.6-4.4,10.6c-1,0-1.9-0.1-2.3-0.3v6c1.3,0.4,3,0.6,4.7,0.6
				c7.4,0,9.7-6.3,9.7-16v-16h10.6v31h7.8V283H311.1z"/>
			<path class="st0" d="M342,301.7c0,17.5,13,19.7,17.9,19.7c5,0,17.9-2.2,17.9-19.7c0-17.5-13-19.7-17.9-19.7
				C355,282,342,284.2,342,301.7z M349.8,301.7c0-10.5,5.9-13.1,10.1-13.1c4.2,0,10.1,2.6,10.1,13.1c0,10.5-5.9,13.1-10.1,13.1
				C355.7,314.8,349.8,312.2,349.8,301.7z"/>
			<polygon class="st0" points="382.7,283 382.7,320.4 390.5,320.4 390.5,289.4 409.3,289.4 409.3,283 			"/>
			<polygon class="st0" points="421,283 413.2,283 413.2,320.4 421.5,320.4 436.8,293.8 436.9,293.8 436.9,320.4 444.7,320.4 
				444.7,283 435.9,283 421,309.1 421,309.1 			"/>
			<path class="st0" d="M480.4,283h-18.9c-7.2,0-11.7,5.5-11.7,11.4c0,5.9,4.2,9.3,8.4,10.7l-9.1,15.4h9.1l8.7-14.6h5.8v14.6h7.8
				V283z M472.6,299.3h-9c-4.1,0-6.1-2.1-6.1-5.2c0-2,1.5-4.7,5.5-4.7h9.6V299.3z"/>
		</g>
	</g>
	<polygon class="st1" points="299.8,256.7 298.7,242.6 301.1,183.6 310.9,189.2 291.7,171.2 264.5,178.1 264.7,173.5 264.2,187.2 
		221,239.2 171.6,193.3 171.4,180.1 197.1,168.7 197.1,168.7 178.4,159.4 178.2,147.5 228,109.3 261.1,120.5 260.6,130.1 
		256.4,131.1 283.1,125.9 291.4,112 281.1,114.9 270.6,89.6 269.8,81.4 311.7,74.3 319,84.3 335,78.6 362.6,102.4 362.2,112.4 
		329,130.6 329.2,130.7 326.5,134.5 345.7,149 345.1,141.2 388.6,141.6 404.1,201.8 404.3,212.3 377.3,209.5 382.6,235.9 
		382.6,249.9 	"/>
	<polygon class="st0" points="298.1,242.6 297.5,178.3 307.2,177.7 288.5,160.3 257.2,168 265.1,173.4 220.2,224 171.1,180.3 
		195.4,157.9 195.4,157.8 178.8,147.5 226.2,106.2 259.7,120.5 254.1,127.4 280.4,122.5 288.8,102.9 281.4,104.9 270.7,81.3 
		309.3,72.2 316.4,81.9 332.3,76.4 362.4,102.4 330.2,118.8 327.3,115.6 323.2,130.8 341.9,144.8 341.4,137.3 388.3,139.1 
		404.6,202 374.4,200.1 383,235.8 	"/>
	<polygon class="st2" points="226,105.8 260.8,120.3 254.9,126.9 279.6,121.8 288,103.5 281,105.5 270,81 309.8,71.7 316,81.5 
		310.3,81 288.8,132.9 189.6,154.6 177.6,147.8 	"/>
	<linearGradient id="SVGID_1_" gradientUnits="userSpaceOnUse" x1="337.5312" y1="213.4765" x2="276.9703" y2="147.1888">
		<stop  offset="0" style="stop-color:#000000"/>
		<stop  offset="1" style="stop-color:#00444E"/>
	</linearGradient>
	<path class="st3" d="M311.7,224.5l-1.6-6.6l0.3-7l51.2-10.5l-69.5-58.7l-2,0.5c-1.1,0-2.2-0.3-3.1-0.7l-1.3-1l-90,20.5l23.1,26.3
		l-0.2,4.7l-6.2,5.1l-25.7-36l0.1-4.1l8.6-1.1l94.2-20.6l20.9-50.7l3.6-3.1l27,15.2l-0.1,2.6l-2.4,1.8l-24.6-15.2l-16.6,43.5
		l0.5,3.1l-0.6,3.5l-0.7-0.6l0.5-2.3l-0.4-1.9l-1.9,5l70.1,58.6l3.3-41.7l3.6-2l0.7,3.2l-3.3,51.6L311.7,224.5z"/>
	<polygon class="st4" points="190.5,162.4 188.8,164 186.4,161.5 186.5,156.7 	"/>
	<polygon class="st5" points="186.8,157 215.7,121.1 220.3,119.7 220.3,122.3 195.4,155.9 289.7,135.4 310.6,84.7 277.7,90 
		277,88.1 277,85.4 314.2,81.6 291.5,132 	"/>
	<path class="st6" d="M312,218.1l-1.9-7.5l49.1-15.2l-66.1-56.2l-2.5,0.5c-1.8,0-3.4-0.7-4.6-1.9l-0.4-0.6L196,157.1l22.9,30.2
		l-6.5,4.9l-25.9-35.2l29.2-38.7l4.8,1l-24.8,32.9l88.5-19l0.5-2.4c1-2.3,3.3-4,6-4l0.3,0l18.6-44.1l-32,5.2l-0.7-2.8l36.3-5.5
		l28.2,17.1l-2.9,2.2l-24.6-15.5l-18.2,45.7l1.1,1.7c0.3,0.8,0.5,1.6,0.5,2.5l-0.5,2.3l65.9,54.6l3.5-40.5l5.8,1.2l-2.8,49
		L312,218.1z"/>
	<polygon class="st7" points="298.1,242.6 297.5,178.3 307.2,177.7 288.5,160.3 257.2,168 265.1,173.4 220.2,224 171.1,180.3 
		189.8,163 186.9,156.5 189.5,153.2 188.2,152.4 177.6,147.8 226,105.8 260.8,120.3 254.9,126.9 279.6,121.8 288,103.5 281,105.5 
		270,81 309.8,71.7 315.6,80.8 316.1,81.6 316.6,81.9 332.3,76.4 362.4,102.4 330.2,118.8 327.3,115.6 323.2,130.8 341.9,144.8 
		341.4,137.3 388.3,139.1 404.6,202 374.4,200.1 383,235.8 	"/>
</g>
</svg>
