<?xml version="1.0" encoding="utf-8"?>
<!-- Generator: Adobe Illustrator 19.2.0, SVG Export Plug-In . SVG Version: 6.00 Build 0)  -->
<svg version="1.1" id="Слой_1" xmlns="http://www.w3.org/2000/svg" xmlns:xlink="http://www.w3.org/1999/xlink" x="0px" y="0px"
	 viewBox="0 0 600 400" style="enable-background:new 0 0 600 400;" xml:space="preserve">
<style type="text/css">
	.st0{fill-rule:evenodd;clip-rule:evenodd;}
</style>
<g>
	<g>
		<path class="st0" d="M309.2,169.6c-8.2,0-16.3,0-24.3,0c-0.2,0-0.4,0-0.7,0.1c-0.9,3.5-1.8,7-2.7,10.5c-1,3.9-2,7.8-3,11.7
			c-0.7,2.5-1.9,3.5-4.5,3.5c-1.4,0-2.7,0-4.1,0c-2.9,0-3.9-1.5-3.1-4.3c1.2-4.2,2.4-8.4,3.6-12.6c5.9-21,11.9-42.1,17.8-63.1
			c0.7-2.5,1.9-3.4,4.4-3.4c2.8,0,5.6,0,8.4,0c2.3,0,3.7,1,4.3,3.2c4,14.2,7.9,28.4,11.9,42.5c3.1,11.1,6.2,22.2,9.3,33.3
			c0.9,3.1-0.2,4.4-3.4,4.4c-1.3,0-2.6,0-4,0c-2.5,0-3.7-1-4.3-3.4c-1.7-7.1-3.5-14.2-5.2-21.3C309.4,170.4,309.3,170.1,309.2,169.6
			z M296.8,123.5c-0.1,0-0.2,0-0.3,0c-3.1,11.6-6.2,23.1-9.4,34.7c6.4,0,12.6,0,18.9,0C303,146.6,299.9,135,296.8,123.5z"/>
		<path class="st0" d="M174.1,111.1c5.2,0.2,10.1,1.1,14.5,4.1c5.6,3.8,8.4,9.3,9.2,15.9c0.2,2-0.6,3.2-2.5,3.8
			c-1.6,0.5-3.2,0.9-4.8,1.2c-1.9,0.4-3.3-0.5-4-2.3c-0.6-1.6-1-3.1-1.7-4.7c-1.4-3.2-3.9-5.2-7.4-5.8c-2.8-0.5-5.5-0.5-8.2,0.3
			c-5.6,1.5-8.4,6.7-7,12.8c0.7,3,2.5,5.1,5.2,6.5c6.4,3.3,12.7,6.7,19.1,10c6.8,3.5,11,9.2,12,16.7c1.7,13.4-5.9,24.7-20.2,26.5
			c-6.2,0.8-12.2,0-17.7-3.2c-6.1-3.5-9.5-8.8-10.6-15.6c-0.3-1.7-0.4-3.4-0.5-5.2c-0.1-2.2,1.2-3.5,3.4-3.6c1.6-0.1,3.2-0.1,4.8,0
			c1.9,0.1,3,1.1,3.2,3c0.2,1.7,0.3,3.4,0.6,5c0.9,4.1,3.5,6.8,7.7,7.9c3.7,1,7.5,0.9,11-0.7c4.5-2,6.6-5.7,6.9-10.5
			c0.3-4.7-2-8.1-6-10.3c-5.9-3.3-12-6.3-18-9.4c-4.6-2.4-8.7-5.4-10.8-10.3c-3.2-7.8-3.3-15.6,1.6-22.8c3.3-4.8,8.2-7.3,13.8-8.5
			C170,111.5,172.1,111.4,174.1,111.1z"/>
		<path class="st0" d="M404.9,195.4c0-27.8,0-55.5,0-83.3c0.5,0,0.9,0,1.4,0c13.3,0,26.6,0,39.8,0c3.2,0,4.3,1.1,4.3,4.2
			c0,1,0,2,0,3c0,3-1.1,4.1-4.1,4.1c-9.4,0-18.8,0-28.2,0c-0.5,0-1,0-1.6,0c0,8.1,0,16.2,0,24.4c0.4,0,0.8,0,1.3,0
			c6.8,0,13.7,0,20.5,0c3.1,0,4.2,1.1,4.2,4.3c0,1.1,0,2.2,0,3.4c0,2.3-1.1,3.5-3.4,3.7c-0.4,0-0.8,0-1.2,0c-6.6,0-13.2,0-19.7,0
			c-0.5,0-1,0-1.6,0c0,8.3,0,16.6,0,25c0.5,0,0.9,0,1.4,0c9.2,0,18.4,0,27.7,0c0.5,0,1.1,0,1.6,0.1c1.9,0.2,3,1.2,3.1,3.1
			c0.1,1.7,0.1,3.4,0,5.1c-0.2,2-1.3,3.1-3.3,3.1c-13.9,0-27.8,0-41.7,0C405.2,195.5,405.1,195.4,404.9,195.4z"/>
		<path class="st0" d="M214.2,111.9c8.3,0.1,16.4,0,24.5,0.5c10.5,0.7,17.9,7.6,19.7,17.9c1.2,6.7,1.3,13.4-0.5,20
			c-2.2,8.6-7.8,13.9-16.5,15.4c-4,0.7-8.1,0.6-12.2,0.8c-1.1,0.1-2.1,0-3.4,0c0,0.6,0,1,0,1.5c0,7.6,0,15.2,0,22.8
			c0,3.4-1.1,4.5-4.4,4.5c-1.2,0-2.4,0-3.6,0c-2.1-0.1-3.3-1.2-3.5-3.2c0-0.4,0-0.8,0-1.2c0-25.8,0-51.6,0-77.4
			C214.2,113.1,214.2,112.7,214.2,111.9z M225.8,155.2c3.9,0,7.7,0.3,11.5-0.1c5-0.5,8.3-3.3,9.5-8.3c1.2-5,1.2-10.1,0-15.1
			c-1-4.1-3.5-6.9-7.6-8c-4.4-1.2-8.9-0.4-13.3-0.6C225.8,134,225.8,144.6,225.8,155.2z"/>
		<path class="st0" d="M339.2,153.9c0-6-0.1-12,0-18c0.1-4.7,1.3-9.2,3.6-13.3c3.2-5.6,8-9.1,14.3-10.6c5.3-1.2,10.5-1.1,15.7,0.4
			c7.7,2.3,12.2,7.7,14.3,15.2c0.4,1.4,0.7,2.9,0.8,4.4c0.2,1.8-0.7,3-2.5,3.5c-1.3,0.4-2.7,0.8-4.1,1c-2.6,0.5-4.7-0.7-5-3.4
			c-0.4-3.2-1.6-6.1-4.2-8.1c-2.9-2.3-6.3-2.7-9.8-2.5c-3.2,0.2-6.1,1.1-8.3,3.6c-1.9,2.2-2.7,4.8-3,7.6c-0.2,1.4-0.3,2.9-0.3,4.3
			c0,10.5-0.1,20.9,0,31.4c0,2.5,0.4,5,1,7.3c1.2,4.7,4.4,7.3,9.1,7.9c2.1,0.3,4.3,0.3,6.4-0.1c4.7-0.8,7.6-3.8,8.7-8.4
			c0.6-2.2,0.7-4.6,0.9-6.9c0.2-2.5,1.2-3.5,3.8-3.6c1.4,0,2.8-0.1,4.2,0c2.4,0.1,3.6,1.4,3.6,3.7c0,4.4-0.6,8.7-2.2,12.9
			c-2.8,7.4-8.1,11.8-15.8,13.3c-5.3,1-10.5,0.9-15.7-0.8c-7.5-2.6-12-8-14.3-15.4c-1.1-3.6-1.4-7.3-1.4-11c0-4.8,0-9.7,0-14.5
			C339.1,153.9,339.2,153.9,339.2,153.9z"/>
	</g>
	<g>
		<path class="st0" d="M149.4,217.5c7.1,0,14.3,0,21.4,0c4.5,0,8.8,0.7,12.7,3.1c4.8,2.9,7.4,7.4,8.6,12.7c0.6,2.6,0.9,5.3,1,8
			c0.1,10.6,0.1,21.2,0,31.8c0,4.3-0.9,8.5-2.8,12.4c-3.2,6.3-8.5,9.5-15.4,10.3c-1.5,0.2-3.1,0.2-4.7,0.3c-6.9,0-13.9,0-20.8,0
			C149.4,269.8,149.4,243.6,149.4,217.5z M156.4,289.4c0.2,0,0.3,0.1,0.4,0.1c5.3,0,10.5,0.1,15.8-0.1c5.4-0.2,9.5-2.6,11.8-7.7
			c1.6-3.4,1.9-7.1,1.9-10.8c0-9.3,0-18.7,0-28c0-2.1-0.2-4.2-0.5-6.3c-1.1-7.9-6.2-12.5-14.2-12.6c-4.8-0.1-9.6,0-14.4,0
			c-0.3,0-0.5,0.1-0.8,0.1C156.4,245.9,156.4,267.6,156.4,289.4z"/>
		<path class="st0" d="M266.4,296c0-26.2,0-52.3,0-78.5c0.3,0,0.5-0.1,0.7-0.1c6.3,0,12.7-0.1,19,0c4.7,0.1,9.2,1.1,13.1,3.9
			c4.2,3,6.4,7.3,7.1,12.2c0.6,4.3,0.4,8.5-1.5,12.5c-1.7,3.7-4.3,6.4-8.3,7.7c-0.1,0-0.2,0.1-0.4,0.2c2.6,0.7,5.1,1.8,7.1,3.6
			c2.9,2.6,4.4,6,5.1,9.7c1.1,6,0.7,11.9-2.1,17.5c-3.1,6.1-8.2,9.5-14.9,10.6c-2.3,0.4-4.6,0.4-7,0.5c-5.6,0.1-11.1,0-16.7,0
			C267.3,296,266.9,296,266.4,296z M273.3,289.6c5.5-0.1,11,0.1,16.3-0.5c5.7-0.6,9.8-3.8,11.6-9.5c1.4-4.3,1.3-8.6,0.1-12.9
			c-1.2-4.1-3.9-6.8-8.1-8c-1.6-0.4-3.2-0.8-4.8-0.9c-4.8-0.2-9.7-0.1-14.5-0.2c-0.2,0-0.4,0.1-0.7,0.1
			C273.3,268.4,273.3,278.9,273.3,289.6z M273.3,251.3c4.4,0,8.8,0.2,13.1-0.1c3.5-0.2,6.7-1.3,9.4-3.6c5.3-4.4,4.8-13.1,2.5-17.5
			c-2-3.9-5.5-5.6-9.6-5.9c-5-0.3-10.1-0.2-15.2-0.3c-0.1,0-0.1,0.1-0.2,0.1C273.3,233.2,273.3,242.2,273.3,251.3z"/>
		<path class="st0" d="M331.5,263.3c0,4.2,0,8.1,0,12.1c0,6.2,0,12.5,0,18.7c0,1.7-0.1,1.9-1.9,1.9c-1.2,0-2.4,0-3.6,0
			c-0.9,0-1.3-0.4-1.3-1.3c0-0.3,0-0.5,0-0.8c0-25.1,0-50.1,0-75.1c0-0.4,0-0.8,0-1.1c0.2-0.1,0.2-0.2,0.3-0.2
			c6.8,0.1,13.6,0,20.4,0.3c4,0.2,7.9,1.3,11.4,3.5c4.7,2.9,7.5,7.2,8.3,12.7c0.8,5.2,0.7,10.3-0.6,15.4c-1.7,6.5-6,10.7-12.3,12.8
			c-0.4,0.1-0.7,0.2-1.2,0.4c0.1,0.3,0.2,0.6,0.4,0.9c3.1,6.3,6.1,12.6,9.3,18.8c1,1.9,2.3,3.7,3.7,5.3c1.3,1.6,3.1,2.4,5.3,2.3
			c1.4,0,1.7,0.3,1.7,1.7c0,0.9,0,1.8,0,2.7c0,1.4-0.4,1.7-1.7,1.8c-5.5,0.4-9.3-2.4-12.4-6.7c-3.2-4.5-5.3-9.7-7.7-14.6
			c-1.7-3.5-3.3-7-5-10.5c-0.2-0.3-0.5-0.8-0.8-0.8C339.6,263.3,335.6,263.3,331.5,263.3z M331.6,256.8c0.9,0,1.8,0,2.7,0
			c4.7-0.2,9.4-0.1,14-0.7c5.5-0.7,8.8-4.2,9.9-9.4c0.8-3.9,0.8-7.7,0.3-11.6c-0.6-4.4-2.9-7.6-7-9.4c-1.8-0.8-3.8-1.4-5.7-1.5
			c-4.6-0.3-9.3-0.2-13.9-0.3c-0.1,0-0.1,0.1-0.2,0.1C331.6,235,331.6,245.8,331.6,256.8z"/>
		<path class="st0" d="M428.3,216.6c4.5,0.1,8.8,0.9,12.6,3.3c5,3.1,7.5,7.9,8.6,13.6c0.1,0.3,0.1,0.5,0.1,0.8
			c0.3,1.4,0.1,1.7-1.3,2.1c-1.1,0.3-2.1,0.5-3.2,0.8c-1.6,0.4-2,0.2-2.2-1.4c-0.4-2.7-1.3-5.3-3.1-7.5c-2-2.5-4.7-3.8-7.9-4.4
			c-3.6-0.6-7.2-0.6-10.7,0.8c-4.9,1.9-7.3,5.6-7.5,10.8c-0.1,3.4,0.4,6.8,2.9,9.5c1.1,1.1,2.4,2.1,3.8,2.9
			c6.1,3.3,12.2,6.5,18.4,9.7c3.1,1.6,6,3.5,8,6.4c3.3,4.7,4.3,9.9,3.4,15.5c-1.2,7.3-5,12.8-12,15.4c-9,3.4-17.7,2.7-25.5-3.5
			c-3.6-2.9-5.5-7-6.3-11.5c-0.2-1.5-0.3-2.9-0.4-4.4c-0.1-1.3,0.3-1.6,1.5-1.7c1.3,0,2.6,0,3.9,0c1,0,1.4,0.4,1.5,1.4
			c0.1,1.4,0.1,2.9,0.4,4.3c1.2,5.7,4.7,9.3,10.4,10.5c4.6,0.9,9.1,0.6,13.3-1.8c7.6-4.5,10.3-18-0.2-24.1c-6-3.5-12.2-6.4-18.4-9.6
			c-3.9-2-7.5-4.5-9.3-8.7c-3.2-7.1-3.4-14.3,1.2-21c2.9-4.3,7.3-6.4,12.3-7.4C424.5,216.9,426.4,216.8,428.3,216.6z"/>
		<path class="st0" d="M210.1,217.5c0.5,0,0.9,0,1.2,0c12.5,0,24.9,0,37.4,0c1.8,0,2,0.2,2,2c0,0.8,0,1.6,0,2.5c0,1.9-0.2,2.1-2,2.1
			c-10.1,0-20.2,0-30.3,0c-0.5,0-0.9,0-1.5,0c0,9.7,0,19.4,0,29.3c0.4,0,0.9,0,1.3,0c7.5,0,15,0,22.6,0c1.8,0,2,0.2,2,2
			c0,1,0,1.9,0,2.9c0,1.4-0.2,1.6-1.6,1.6c-5.4,0-10.8,0-16.1,0c-2.7,0-5.4,0-8.1,0c0,9.9,0,19.7,0,29.7c0.4,0,0.9,0,1.3,0
			c10.1,0,20.2,0,30.3,0c2,0,2.2,0.2,2.2,2.2c0,1,0,1.9,0,2.9c0,1-0.5,1.4-1.4,1.4c-0.9,0-1.7,0-2.6,0c-11.7,0-23.4,0-35.2,0
			c-0.5,0-0.9,0-1.5,0C210.1,269.8,210.1,243.7,210.1,217.5z"/>
		<path class="st0" d="M392.2,256.8c0,12.3,0,24.6,0,36.9c0,2.1-0.1,2.2-2.3,2.2c-1.1,0-2.1,0-3.2,0c-1,0-1.4-0.5-1.5-1.4
			c0-0.3,0-0.6,0-0.9c0-24.7,0-49.3,0-74c0-2.1,0.1-2.2,2.2-2.2c1.1,0,2.2,0,3.3,0c0.9,0,1.3,0.5,1.4,1.3c0,0.3,0,0.7,0,1.1
			C392.2,232.1,392.2,244.5,392.2,256.8z"/>
	</g>
</g>
</svg>
