<?xml version="1.0" encoding="utf-8"?>
<!-- Generator: Adobe Illustrator 19.2.0, SVG Export Plug-In . SVG Version: 6.00 Build 0)  -->
<svg version="1.1" id="Слой_1" xmlns="http://www.w3.org/2000/svg" xmlns:xlink="http://www.w3.org/1999/xlink" x="0px" y="0px"
	 viewBox="0 0 600 400" style="enable-background:new 0 0 600 400;" xml:space="preserve">
<style type="text/css">
	.st0{fill:#1D1D1B;}
	.st1{fill:#1D1E1C;}
</style>
<g>
	<g>
		<path class="st0" d="M211.8,123.4l5.1-10.7h7L211,139.6h-6.9l3.8-8.1l-10-18.9h7.2l5.6,10.7H211.8z"/>
		<path class="st0" d="M240.3,112.7c6.4,0,10.1,3.2,10.1,8.9c0,5.7-3.7,9-10.1,9h-5.9v9h-7v-26.9H240.3z M239.4,124.5
			c2.8,0,3.8-1,3.8-2.9s-1.1-2.9-3.8-2.9h-5v5.8H239.4z"/>
		<path class="st0" d="M277.2,139.6h-7l-2-7h-9.1l-1.9,7h-6.8l8.1-26.9h10.6L277.2,139.6z M260.7,127.1h6l-2.1-7.8h-1.7L260.7,127.1
			z"/>
		<path class="st0" d="M278.8,132.8h1.1c2.8,0,3.7-0.5,3.7-8.2v-12h20.9v26.9h-7v-20.7h-7.4v6c0,12.8-3.3,14.8-10.2,14.8h-1.1V132.8
			z"/>
		<path class="st0" d="M323,121.1c6.6,0,10.4,3.4,10.4,9.1c0,5.9-3.8,9.3-10.4,9.3h-12.7v-26.9h7v8.5H323z M321.9,133.6
			c3.1,0,4.3-1.1,4.3-3.2c0-2.1-1.1-3.2-4.3-3.2h-4.6v6.4H321.9z"/>
		<path class="st0" d="M361.6,130.4c-0.7,5.7-5,9.7-11.6,9.7c-8.3,0-13.1-5.6-13.1-14c0-8.4,4.8-14,13.1-14c6.4,0,10.5,3.7,11.4,8.8
			h-7.3c-0.5-1.8-2-2.6-4.1-2.6c-3.9,0-6,3.2-6,7.8c0,4.5,2,7.8,6,7.8c2.4,0,4.1-1.2,4.4-3.5H361.6z"/>
		<path class="st0" d="M366.3,112.7h7v9.9h5.4l4.6-9.9h7.1l-6,13.1l6.4,13.8h-7.1l-4.9-10.7h-5.5v10.7h-7V112.7z"/>
		<path class="st0" d="M418.8,139.6h-7l-2-7h-9l-1.9,7H392l8.1-26.9h10.6L418.8,139.6z M402.3,127.1h6l-2.1-7.8h-1.7L402.3,127.1z"
			/>
		<path class="st0" d="M443.9,112.7v26.9h-7v-9.4h-5.6l-3.4,9.4h-7l3.9-10.8c-2.6-1.5-3.9-4-3.9-7.4c0-5.5,3.6-8.7,9.8-8.7H443.9z
			 M436.9,124.3v-5.5h-5.2c-2.6,0-3.6,0.9-3.6,2.8c0,1.8,1,2.8,3.6,2.8H436.9z"/>
		<path class="st0" d="M206.9,150.3v17h1.1l8-17h9v26.9h-6.4v-17h-1.1l-8,17h-9v-26.9H206.9z"/>
		<path class="st0" d="M254.7,150.3v26.9h-7v-10.7h-10v10.7h-7v-26.9h7v10h10v-10H254.7z"/>
		<path class="st0" d="M265.2,177.3v6.6h-6.8v-12.8h2.8c1.6-2.6,2.9-6.6,2.9-12.5v-8.2H284v20.7h3.8v12.8h-6.8v-6.6H265.2z
			 M277.3,156.5h-6.8v2c0,5.9-0.8,10-2.4,12.5h9.2V156.5z"/>
		<path class="st0" d="M303,161.1l5.1-10.7h7l-12.9,26.9h-6.9l3.8-8.1l-10-18.9h7.2l5.6,10.7H303z"/>
		<path class="st0" d="M341,168.1c-0.7,5.7-5,9.7-11.6,9.7c-8.3,0-13.1-5.6-13.1-14c0-8.4,4.8-14,13.1-14c6.4,0,10.5,3.7,11.4,8.8
			h-7.3c-0.5-1.8-2-2.6-4.1-2.6c-3.9,0-6,3.2-6,7.8c0,4.5,2,7.8,6,7.8c2.4,0,4.1-1.2,4.4-3.5H341z"/>
		<path class="st0" d="M366.5,156.5h-8.1v20.7h-7v-20.7h-8v-6.2h23.1V156.5z"/>
		<path class="st0" d="M382.8,150.3c6.4,0,10.1,3.2,10.1,8.9c0,5.7-3.7,9-10.1,9H377v9.1h-7v-26.9H382.8z M381.9,162.2
			c2.8,0,3.8-1,3.8-2.9c0-1.9-1.1-2.9-3.8-2.9h-5v5.8H381.9z"/>
		<path class="st0" d="M404,150.3v17h1.1l8-17h9v26.9h-6.4v-17h-1.1l-8,17h-9v-26.9H404z"/>
		<path class="st0" d="M452.3,177.3h-7l-2-7h-9l-1.9,7h-6.8l8.1-26.9h10.6L452.3,177.3z M435.8,164.8h6l-2.1-7.8H438L435.8,164.8z"
			/>
		<path class="st0" d="M453.9,170.5h1.1c2.8,0,3.7-0.5,3.7-8.2v-12h20.9v26.9h-7v-20.7h-7.4v6c0,12.8-3.3,14.8-10.2,14.8h-1.1V170.5
			z"/>
		<path class="st0" d="M498.1,158.8c6.6,0,10.4,3.4,10.4,9.1c0,5.9-3.8,9.3-10.4,9.3h-12.7v-26.9h7v8.5H498.1z M497,171.3
			c3.1,0,4.3-1.1,4.3-3.2c0-2.1-1.1-3.2-4.3-3.2h-4.6v6.4H497z"/>
		<path class="st0" d="M537.1,150.3v26.9h-7v-10.7h-10v10.7h-7v-26.9h7v10h10v-10H537.1z"/>
		<path class="st0" d="M567.4,177.3h-7l-2-7h-9.1l-1.9,7h-6.8l8.1-26.9h10.6L567.4,177.3z M550.9,164.8h6l-2.1-7.8h-1.7L550.9,164.8
			z"/>
		<path class="st0" d="M592.5,150.3v26.9h-7v-9.4h-5.6l-3.4,9.4h-7l3.9-10.8c-2.6-1.5-3.9-4-3.9-7.4c0-5.5,3.6-8.7,9.8-8.7H592.5z
			 M585.5,162v-5.5h-5.2c-2.6,0-3.6,0.9-3.6,2.8c0,1.8,1,2.8,3.6,2.8H585.5z"/>
		<path class="st0" d="M207.5,197.8h6.4c6.1,0,9.7,3.2,9.7,8.5c0,5.4-3.5,8.6-9.7,8.6h-13.4V188H221v6.2h-13.5V197.8z M212.6,209
			c2.7,0,3.7-1,3.7-2.8c0-1.8-1-2.8-3.7-2.8h-5.2v5.6H212.6z"/>
		<path class="st0" d="M234.6,188v17h1.1l8-17h9V215h-6.4v-17h-1.1l-8,17h-9V188H234.6z"/>
		<path class="st0" d="M265.4,204.2v4.5h14v6.2h-21V188h20.7v6.2h-13.7v4h10.4v6H265.4z"/>
		<path class="st0" d="M307.9,188V215h-7v-10.7h-10V215h-7V188h7v10h10v-10H307.9z"/>
		<path class="st0" d="M337.7,188V215h-7v-10.7h-10V215h-7V188h7v10h10v-10H337.7z"/>
		<path class="st0" d="M368,215h-7l-2-7h-9l-1.9,7h-6.8l8.1-26.9h10.6L368,215z M351.5,202.5h6l-2.2-7.8h-1.7L351.5,202.5z"/>
		<path class="st0" d="M369.6,208.2h1.1c2.8,0,3.7-0.5,3.7-8.2v-12h20.9V215h-7v-20.7h-7.4v6c0,12.8-3.3,14.8-10.2,14.8h-1.1V208.2z
			"/>
		<path class="st0" d="M408.1,204.2v4.5h14v6.2h-21V188h20.7v6.2h-13.7v4h10.4v6H408.1z"/>
		<path class="st0" d="M224,243.5c-0.7,5.7-5,9.7-11.6,9.7c-8.3,0-13.1-5.6-13.1-14c0-8.4,4.8-14,13.1-14c6.4,0,10.5,3.7,11.4,8.8
			h-7.3c-0.5-1.8-2-2.6-4.1-2.6c-3.9,0-6,3.2-6,7.8c0,4.5,2,7.8,6,7.8c2.4,0,4.1-1.2,4.4-3.5H224z"/>
		<path class="st0" d="M254.4,239.2c0,8-4.8,14-13.5,14c-8.7,0-13.5-6-13.5-14s4.8-14,13.5-14C249.7,225.2,254.4,231.2,254.4,239.2z
			 M247.3,239.2c0-4.5-2.1-7.8-6.3-7.8c-4.2,0-6.3,3.2-6.3,7.8c0,4.5,2.1,7.8,6.3,7.8C245.2,246.9,247.3,243.7,247.3,239.2z"/>
		<path class="st0" d="M278.7,239.3c1.6,0.8,3.4,2.8,3.4,5.4c0,4.5-2.9,7.9-9.4,7.9h-13.6v-26.9h13.2c6.1,0,9,3.3,9,7.4
			c0,2.4-1.1,4.3-2.6,5.2V239.3z M266.1,236h5.2c1.5,0,2.8-0.5,2.8-2.3c0-1.8-1.4-2.3-2.9-2.3h-5.2V236z M271.6,246.9
			c1.6,0,3.3-0.6,3.3-2.5c0-2-1.4-2.7-3.2-2.7h-5.6v5.2H271.6z"/>
		<path class="st0" d="M299.8,225.7c6.4,0,10.1,3.2,10.1,8.9c0,5.7-3.7,9-10.1,9h-5.9v9.1h-7v-26.9H299.8z M298.9,237.6
			c2.8,0,3.8-1,3.8-2.9c0-1.9-1.1-2.9-3.8-2.9h-5v5.8H298.9z"/>
		<path class="st0" d="M321.5,241.9v4.5h14v6.2h-21v-26.9h20.7v6.2h-13.6v4h10.4v6H321.5z"/>
		<path class="st0" d="M367.9,225.7v26.9h-6.4v-18.2h-1.1l-3.1,9.7h-6.9l-3.1-9.7h-1.1v18.2H340v-26.9h10.5l3,9.8h1.1l3-9.8H367.9z"
			/>
		<path class="st0" d="M380.8,241.9v4.5h14v6.2h-21v-26.9h20.7v6.2h-13.7v4h10.4v6H380.8z"/>
		<path class="st0" d="M423.2,225.7v26.9h-7V242h-10v10.7h-7v-26.9h7v10h10v-10H423.2z"/>
		<path class="st0" d="M453.1,225.7v26.9h-7V242h-10v10.7h-7v-26.9h7v10h10v-10H453.1z"/>
		<path class="st0" d="M484.6,239.2c0,8-4.8,14-13.5,14c-8.7,0-13.5-6-13.5-14s4.8-14,13.5-14C479.9,225.2,484.6,231.2,484.6,239.2z
			 M477.5,239.2c0-4.5-2.1-7.8-6.3-7.8c-4.2,0-6.3,3.2-6.3,7.8c0,4.5,2.1,7.8,6.3,7.8C475.3,246.9,477.5,243.7,477.5,239.2z"/>
		<path class="st0" d="M496.3,252.6h-7v-26.9h20.1v6.2h-13.1V252.6z"/>
		<path class="st0" d="M539,239.2c0,8-4.8,14-13.5,14c-8.7,0-13.5-6-13.5-14s4.8-14,13.5-14C534.3,225.2,539,231.2,539,239.2z
			 M531.9,239.2c0-4.5-2.1-7.8-6.3-7.8c-4.2,0-6.3,3.2-6.3,7.8c0,4.5,2.1,7.8,6.3,7.8C529.8,246.9,531.9,243.7,531.9,239.2z"/>
		<path class="st0" d="M206.9,263.4v17h1.1l8-17h9v26.9h-6.4v-17h-1.1l-8,17h-9v-26.9H206.9z"/>
		<path class="st0" d="M254.3,281.2c-0.7,5.7-5,9.7-11.6,9.7c-8.3,0-13.1-5.6-13.1-14c0-8.4,4.8-14,13.1-14c6.4,0,10.5,3.7,11.4,8.8
			h-7.3c-0.5-1.8-2-2.6-4.1-2.6c-3.9,0-6,3.2-6,7.8c0,4.5,2,7.8,6,7.8c2.4,0,4.1-1.2,4.4-3.5H254.3z"/>
		<path class="st0" d="M258.9,263.4h7v9.9h5.4l4.6-9.9h7.1l-6,13.1l6.4,13.8h-7.1l-4.9-10.7h-5.5v10.7h-7V263.4z"/>
		<path class="st0" d="M298.3,274.2l5.1-10.7h7l-12.9,26.9h-6.9l3.8-8.1l-10-18.9h7.2l5.6,10.7H298.3z"/>
		<path class="st0" d="M336.4,281.2c-0.7,5.7-5,9.7-11.6,9.7c-8.3,0-13.1-5.6-13.1-14c0-8.4,4.8-14,13.1-14c6.4,0,10.5,3.7,11.4,8.8
			h-7.3c-0.5-1.8-2-2.6-4.1-2.6c-3.9,0-6,3.2-6,7.8c0,4.5,2,7.8,6,7.8c2.4,0,4.1-1.2,4.4-3.5H336.4z"/>
		<path class="st0" d="M364.6,281.2c-0.7,5.7-5,9.7-11.6,9.7c-8.3,0-13.1-5.6-13.1-14c0-8.4,4.8-14,13.1-14c6.4,0,10.5,3.7,11.4,8.8
			h-7.3c-0.5-1.8-2-2.6-4.1-2.6c-3.9,0-6,3.2-6,7.8c0,4.5,2,7.8,6,7.8c2.4,0,4.1-1.2,4.4-3.5H364.6z"/>
		<path class="st0" d="M390.1,269.6H382v20.7h-7v-20.7h-8v-6.2h23.1V269.6z"/>
		<path class="st0" d="M413.2,277c1.6,0.8,3.4,2.8,3.4,5.4c0,4.5-2.9,7.9-9.4,7.9h-13.6v-26.9h13.2c6.1,0,9,3.3,9,7.4
			c0,2.4-1.1,4.3-2.6,5.2V277z M400.6,273.7h5.2c1.5,0,2.8-0.5,2.8-2.3c0-1.8-1.4-2.3-2.9-2.3h-5.2V273.7z M406,284.6
			c1.6,0,3.3-0.6,3.3-2.5c0-2-1.4-2.7-3.2-2.7h-5.6v5.2H406z"/>
		<path class="st0" d="M445.9,290.3h-7l-2-7h-9l-1.9,7h-6.8l8.1-26.9h10.6L445.9,290.3z M429.4,277.8h6l-2.2-7.8h-1.7L429.4,277.8z"
			/>
	</g>
	<g>
		<polygon class="st1" points="147,159.4 153.2,159.4 153.2,149.1 152.4,149.1 		"/>
		<path class="st1" d="M10.1,112.2v178.6h178.6V112.2H10.1z M158.9,260.9H40V142h10.2v58.2l36.4-17.1v17.1l36.4-17.1v17.1l35.8-17.1
			V260.9z M162.8,164.7h-2.9v5.5h-6.8v-5.5h-12.5v-5.1l8.9-17.2h10.4v17.1h2.9V164.7z"/>
	</g>
</g>
</svg>
