<?xml version="1.0" encoding="utf-8"?>
<!-- Generator: Adobe Illustrator 19.2.0, SVG Export Plug-In . SVG Version: 6.00 Build 0)  -->
<svg version="1.1" id="Слой_1" xmlns="http://www.w3.org/2000/svg" xmlns:xlink="http://www.w3.org/1999/xlink" x="0px" y="0px"
	 viewBox="0 0 600 400" style="enable-background:new 0 0 600 400;" xml:space="preserve">
<style type="text/css">
	.st0{fill:#1D1D1B;}
	.st1{fill:#1D1E1C;}
</style>
<g>
	<g>
		<path class="st0" d="M246.3,104.2v18.2c0,7.4-4.6,11.4-12.7,11.4c-8,0-12.6-4-12.6-11.4v-18.2h7.5v18c0,2.9,1.9,4.9,5.1,4.9
			c3.3,0,5.1-2,5.1-4.9v-18H246.3z"/>
		<path class="st0" d="M266.6,104.2c6.7,0,10.6,3.5,10.6,9.4c0,3.7-1.5,6.4-4.2,8l4.2,11.7h-7.6l-3.6-10.2h-6v10.2h-7.6v-29H266.6z
			 M265.6,116.8c2.8,0,3.9-1.1,3.9-3c0-2-1.1-3-3.9-3H260v6H265.6z"/>
		<path class="st0" d="M308.8,133.3h-7.5l-2.1-7.5h-9.8l-2.1,7.5H280l8.7-29h11.4L308.8,133.3z M291,119.8h6.5l-2.3-8.4h-1.8
			L291,119.8z"/>
		<path class="st0" d="M335,126.6v6.7h-22.4v-29h7.6v22.4H335z"/>
		<path class="st0" d="M228.8,173.9h-7.6v-29h7.6V173.9z"/>
		<path class="st0" d="M261.2,144.9v29h-9.1l-9-16.9H242v16.9h-6.7v-29h9.1l9,16.9h1.1v-16.9H261.2z"/>
		<path class="st0" d="M280.4,144.9c8.9,0,13.5,5.8,13.5,14.5c0,8.7-4.6,14.5-13.5,14.5h-12.9v-29H280.4z M279.2,167.2
			c5.1,0,6.9-3.5,6.9-7.8c0-4.4-1.9-7.8-6.9-7.8H275v15.7H279.2z"/>
		<path class="st0" d="M324.1,144.9V163c0,7.4-4.6,11.4-12.7,11.4c-8,0-12.6-4-12.6-11.4v-18.2h7.5v18c0,2.9,1.9,4.9,5.1,4.9
			c3.3,0,5.1-2,5.1-4.9v-18H324.1z"/>
		<path class="st0" d="M345.3,153.2c-0.4-2-2-2.6-4.3-2.6c-2,0-3.7,0.8-3.7,2.5c0,1.4,1.1,2,2.8,2.2l5.3,0.9
			c4.7,0.8,8.3,3.4,8.3,8.7c0,5-3.9,9.5-12.1,9.5c-7.8,0-12.2-3.7-12.8-9.9h7.7c0.4,2.8,2.8,3.6,5.4,3.6c2.6,0,4.2-1.1,4.2-2.7
			c0-1.8-1.3-2.4-3.3-2.8l-5.4-0.9c-5.2-0.9-7.7-3.9-7.7-8.3c0-5,4.1-9.1,11.4-9.1c6.5,0,11.4,3.3,11.9,8.9H345.3z"/>
		<path class="st0" d="M381.3,151.5h-8.7v22.4h-7.6v-22.4h-8.7v-6.7h24.9V151.5z"/>
		<path class="st0" d="M399.3,144.9c6.7,0,10.6,3.5,10.6,9.4c0,3.7-1.5,6.4-4.2,8l4.2,11.7h-7.6l-3.6-10.2h-6v10.2h-7.6v-29H399.3z
			 M398.2,157.4c2.8,0,3.9-1.1,3.9-3c0-1.9-1.1-3-3.9-3h-5.6v6H398.2z"/>
		<path class="st0" d="M422.8,173.9h-7.6v-29h7.6V173.9z"/>
		<path class="st0" d="M455.6,173.9h-7.5l-2.1-7.5h-9.8l-2.1,7.5h-7.4l8.7-29h11.4L455.6,173.9z M437.9,160.4h6.5L442,152h-1.8
			L437.9,160.4z"/>
		<path class="st0" d="M481.9,167.2v6.7h-22.4v-29h7.6v22.4H481.9z"/>
		<path class="st0" d="M242.2,200.1c1.7,0.9,3.6,3,3.6,5.9c0,4.9-3.1,8.5-10.1,8.5h-14.7v-29h14.2c6.6,0,9.8,3.6,9.8,7.9
			c0,2.6-1.2,4.6-2.8,5.6V200.1z M228.6,196.6h5.7c1.6,0,3-0.6,3-2.5c0-1.9-1.5-2.5-3.1-2.5h-5.6V196.6z M234.5,208.3
			c1.8,0,3.5-0.7,3.5-2.7c0-2.2-1.5-2.9-3.4-2.9h-6v5.6H234.5z"/>
		<path class="st0" d="M258.8,214.5h-7.6v-29h7.6V214.5z"/>
		<path class="st0" d="M272.8,203v4.9h15.1v6.7h-22.6v-29h22.3v6.7h-14.7v4.3h11.2v6.5H272.8z"/>
		<path class="st0" d="M318.7,185.5v29h-9.1l-9-16.9h-1.1v16.9h-6.7v-29h9.1l9,16.9h1.1v-16.9H318.7z"/>
		<path class="st0" d="M350.9,185.5v29h-9.1l-9-16.9h-1.1v16.9h-6.7v-29h9.1l9,16.9h1.1v-16.9H350.9z"/>
		<path class="st0" d="M364.9,214.5h-7.6v-29h7.6V214.5z"/>
		<path class="st0" d="M397.7,214.5h-7.5l-2.1-7.5h-9.8l-2.1,7.5h-7.4l8.7-29H389L397.7,214.5z M380,201.1h6.5l-2.3-8.4h-1.8
			L380,201.1z"/>
		<path class="st0" d="M423.9,207.8v6.7h-22.4v-29h7.6v22.4H423.9z"/>
		<path class="st0" d="M465.4,200c0,8.6-5.1,15-14.5,15c-9.4,0-14.5-6.4-14.5-15c0-8.6,5.1-15,14.5-15
			C460.2,185,465.4,191.4,465.4,200z M457.6,200c0-4.9-2.3-8.4-6.8-8.4c-4.5,0-6.8,3.5-6.8,8.4c0,4.9,2.3,8.4,6.8,8.4
			C455.4,208.4,457.6,204.9,457.6,200z"/>
		<path class="st0" d="M489.3,197.1v6.5h-11.3v10.9h-7.6v-29h22.2v6.7h-14.6v5H489.3z"/>
		<path class="st0" d="M246.5,245.3c-0.8,6.1-5.4,10.4-12.5,10.4c-8.9,0-14.1-6-14.1-15c0-9,5.2-15,14.1-15c6.9,0,11.3,4,12.3,9.5
			h-7.8c-0.5-1.9-2.2-2.8-4.4-2.8c-4.2,0-6.4,3.5-6.4,8.4c0,4.9,2.2,8.4,6.4,8.4c2.6,0,4.4-1.3,4.8-3.7H246.5z"/>
		<path class="st0" d="M279.3,240.6c0,8.6-5.1,15-14.5,15c-9.4,0-14.5-6.4-14.5-15c0-8.6,5.1-15,14.5-15
			C274.1,225.6,279.3,232,279.3,240.6z M271.5,240.6c0-4.9-2.3-8.4-6.8-8.4c-4.5,0-6.8,3.5-6.8,8.4c0,4.9,2.3,8.4,6.8,8.4
			C269.3,249,271.5,245.5,271.5,240.6z"/>
		<path class="st0" d="M310.2,226.1v29h-9.1l-9-16.9H291v16.9h-6.7v-29h9.1l9,16.9h1.1v-16.9H310.2z"/>
		<path class="st0" d="M338.9,232.8h-8.7v22.4h-7.6v-22.4h-8.7v-6.7h24.9V232.8z"/>
		<path class="st0" d="M350.2,243.6v4.9h15.1v6.7h-22.6v-29h22.3v6.7h-14.7v4.3h11.2v6.5H350.2z"/>
		<path class="st0" d="M400.2,226.1v29h-7v-19.6h-1.1l-3.3,10.4h-7.4l-3.3-10.4H377v19.6h-7v-29h11.3l3.2,10.5h1.1l3.2-10.5H400.2z"
			/>
		<path class="st0" d="M420.4,226.1c6.9,0,10.9,3.5,10.9,9.6c0,6.1-4,9.7-10.9,9.7H414v9.8h-7.6v-29H420.4z M419.4,238.9
			c3,0,4.1-1.1,4.1-3.1s-1.1-3.1-4.1-3.1H414v6.2H419.4z"/>
		<path class="st0" d="M464,240.6c0,8.6-5.1,15-14.5,15c-9.4,0-14.5-6.4-14.5-15c0-8.6,5.1-15,14.5-15
			C458.9,225.6,464,232,464,240.6z M456.3,240.6c0-4.9-2.3-8.4-6.8-8.4c-4.5,0-6.8,3.5-6.8,8.4c0,4.9,2.3,8.4,6.8,8.4
			C454,249,456.3,245.5,456.3,240.6z"/>
		<path class="st0" d="M483.2,226.1c6.7,0,10.6,3.5,10.6,9.4c0,3.7-1.5,6.4-4.2,8l4.2,11.7h-7.6l-3.6-10.2h-6v10.2H469v-29H483.2z
			 M482.1,238.7c2.8,0,3.9-1.1,3.9-3c0-1.9-1.1-3-3.9-3h-5.6v6H482.1z"/>
		<path class="st0" d="M525.3,255.1h-7.5l-2.1-7.5h-9.8l-2.1,7.5h-7.4l8.7-29h11.4L525.3,255.1z M507.6,241.7h6.5l-2.3-8.4h-1.8
			L507.6,241.7z"/>
		<path class="st0" d="M543.3,226.1c6.7,0,10.6,3.5,10.6,9.4c0,3.7-1.5,6.4-4.2,8l4.2,11.7h-7.6l-3.6-10.2h-6v10.2h-7.6v-29H543.3z
			 M542.3,238.7c2.8,0,3.9-1.1,3.9-3c0-1.9-1.1-3-3.9-3h-5.6v6H542.3z"/>
		<path class="st0" d="M569.8,236.7l5.3-10.6h7.9l-10,19.1v9.9h-7.6v-9.9l-9.9-19.1h7.8l5.3,10.6H569.8z"/>
		<path class="st0" d="M247.4,295.8h-7.5l-2.1-7.5H228l-2.1,7.5h-7.4l8.7-29h11.4L247.4,295.8z M229.7,282.3h6.5l-2.3-8.4H232
			L229.7,282.3z"/>
		<path class="st0" d="M265.4,266.7c6.7,0,10.6,3.5,10.6,9.4c0,3.7-1.5,6.4-4.2,8l4.2,11.7h-7.6l-3.6-10.2h-6v10.2h-7.6v-29H265.4z
			 M264.4,279.3c2.8,0,3.9-1.1,3.9-3c0-2-1.1-3-3.9-3h-5.6v6H264.4z"/>
		<path class="st0" d="M303.6,273.4h-8.7v22.4h-7.6v-22.4h-8.7v-6.7h24.9V273.4z"/>
	</g>
	<g>
		<polygon class="st1" points="163.8,154.9 170.4,154.9 170.4,143.8 169.6,143.8 		"/>
		<path class="st1" d="M17,104.2v191.5h191.5V104.2H17z M176.5,263.7H49V136.3h11v62.4l39-18.3v18.3l39-18.3v18.3l38.4-18.3V263.7z
			 M180.7,160.6h-3.1v5.9h-7.3v-5.9h-13.5v-5.5l9.6-18.5h11.1v18.3h3.1V160.6z"/>
	</g>
</g>
</svg>
