<?xml version="1.0" encoding="utf-8"?>
<!-- Generator: Adobe Illustrator 19.2.0, SVG Export Plug-In . SVG Version: 6.00 Build 0)  -->
<svg version="1.1" id="Слой_1" xmlns="http://www.w3.org/2000/svg" xmlns:xlink="http://www.w3.org/1999/xlink" x="0px" y="0px"
	 viewBox="0 0 397.7 138.7" style="enable-background:new 0 0 397.7 138.7;" xml:space="preserve">
<style type="text/css">
	.st0{enable-background:new    ;}
</style>
<g class="st0">
	<path d="M22,62.7v-26H11.5v26H0V0.6h11.4V26h10.5V0.6h11.4v62.1H22z"/>
	<path d="M65.8,62.7l-2.1-10H51.3l-2,10H38L52.4,0.6h10.1l14.7,62.1H65.8z M58.6,27.8L57.4,21l-1.1,6.8l-3.1,15.4h8.7L58.6,27.8z"/>
	<path d="M99,62.7H81.6V0.6h30.8V11H93v13.7h5.9c10.6,0,16.7,5.2,16.7,18.2v1.5C115.7,57.4,109.4,62.7,99,62.7z M104.2,43.3
		c0-6.1-1.7-8.4-6.4-8.4H93v17.5h4.8c4.7,0,6.4-2.4,6.4-8.4V43.3z"/>
	<path d="M137.4,63.3c-9.3,0-16.8-4.5-16.8-19.1V19.1C120.6,4.5,128,0,137.4,0c9.4,0,16.8,4.5,16.8,19.1v25.1
		C154.2,58.8,146.8,63.3,137.4,63.3z M142.7,19.3c0-7.4-2.3-8.8-5.3-8.8c-3.1,0-5.2,1.4-5.2,8.8v24.5c0,7.4,2.2,8.9,5.2,8.9
		c3.1,0,5.3-1.5,5.3-8.9V19.3z"/>
	<path d="M178.6,39.3h-5.8v23.4h-11.4V0.6h17.2c10.4,0,16.7,5.3,16.7,18.3v2.2C195.3,34,189.2,39.3,178.6,39.3z M183.8,19.4
		c0-6-1.7-8.5-6.4-8.5h-4.6v18h4.6c4.7,0,6.4-2.3,6.4-8.4V19.4z"/>
	<path d="M245.1,75.3V62.7h-22.7v12.6H212v-23h3.5c4.1-11.4,5.1-21.7,5.1-43.5V0.7h30.3v51.7h4.6v23L245.1,75.3L245.1,75.3z
		 M239.5,11.1h-7.8v7c0,17.8-1.4,24.7-4.7,34.1h12.6V11.1H239.5z"/>
	<path d="M284.1,62.7V11.1h-7.9l-0.7,28.6c-0.3,13.9-4.3,23-16.3,23H256V52.1c6.9,0,7.7-7.3,7.8-12.6l1-38.9h31v62.1H284.1z"/>
	<path d="M325.4,62.7V39.1h-3.8l-7.9,23.6h-12l9.4-26c-4.9-2.2-8.2-7.2-8.2-16.5v-2c0-11,5-17.6,16.1-17.6h17.7v62.1H325.4z
		 M325.4,10.9h-5c-4.3,0-5.8,2.6-5.8,8v1.9c0,5.4,1.9,8,5.8,8h5V10.9z"/>
</g>
<g class="st0">
	<path d="M17.2,138.7H0V76.6h16.8c11.4,0,16.7,5.4,16.7,17v1.2c0,7.1-3.5,10.6-6.5,12c3.1,1.1,7.2,4.8,7.2,13v1.2
		C34.2,133.8,27.1,138.7,17.2,138.7z M15.9,87h-4.5v14.9H16c4.7,0,5.9-2.9,5.9-7.4C22,89.5,20.5,87,15.9,87z M16.5,112.2h-5v16.1h5
		c5,0,6.3-3,6.3-8.1S21.5,112.2,16.5,112.2z"/>
	<path d="M57.5,138.7H40.3V76.6h11.4v23h5.8c10.6,0,16.7,5.2,16.7,18.2v2.8C74.1,133.5,67.9,138.7,57.5,138.7z M62.7,118.3
		c0-6-1.7-8.3-6.4-8.3h-4.6v18.2h4.6c4.7,0,6.4-2.4,6.4-8.5V118.3z M79.4,138.7V76.6h11.5v62.1H79.4z"/>
	<path d="M142.5,138.7l-8.9-25.5l-3.2,6v19.5h-11.3v-19.5l-3.2-6l-8.9,25.5H95l13-37.6L96.1,76.6h12l7.9,17.9c0.4,1,2.8,6.9,2.9,7.7
		h0.2V76.6h11.3v25.7h0.2c0.1-0.7,2.3-6.5,2.6-7.2l8.2-18.5h12l-11.9,24.5l13,37.6L142.5,138.7L142.5,138.7z"/>
	<path d="M181.1,138.7v-28.4c0-1.8,0.4-7.1,0.6-8.5h-0.2l-13.3,36.9h-9.8V76.6h11.3v27.8c0,1.9-0.3,7.7-0.5,9.2h0.2l13.2-37h9.8
		v62.1L181.1,138.7L181.1,138.7z"/>
	<path d="M218,138.7h-17.2V76.6h16.8c11.4,0,16.7,5.4,16.7,17v1.2c0,7.1-3.5,10.6-6.5,12c3.1,1.1,7.2,4.8,7.2,13v1.2
		C235,133.8,227.9,138.7,218,138.7z M216.7,87h-4.5v14.9h4.6c4.7,0,5.9-2.9,5.9-7.4C222.8,89.5,221.3,87,216.7,87z M217.3,112.2h-5
		v16.1h5c5,0,6.3-3,6.3-8.1S222.3,112.2,217.3,112.2z"/>
	<path d="M265.1,138.7l-2.1-10h-12.5l-2,10h-11.3l14.4-62.1h10.1l14.7,62.1H265.1z M257.8,103.8l-1.2-6.8l-1.1,6.8l-3.1,15.4h8.7
		L257.8,103.8z"/>
	<path d="M302.8,138.7v-26h-10.5v26h-11.4V76.6h11.4V102h10.5V76.6h11.4v62.1H302.8z"/>
	<path d="M345.3,138.7v-28.4c0-1.8,0.4-7.1,0.6-8.5h-0.2l-13.3,36.9h-9.7V76.6H334v27.8c0,1.9-0.3,7.7-0.5,9.2h0.2l13.2-37h9.8v62.1
		L345.3,138.7L345.3,138.7z"/>
	<path d="M386.4,138.7v-23.6h-3.8l-7.9,23.6h-12l9.4-26c-4.9-2.2-8.2-7.2-8.2-16.5v-2c0-11,5-17.6,16.1-17.6h17.7v62.1H386.4z
		 M386.4,86.9h-5c-4.3,0-5.8,2.6-5.8,8v1.9c0,5.4,1.9,8,5.8,8h5V86.9z"/>
</g>
</svg>
