<?xml version="1.0" encoding="utf-8"?>
<!-- Generator: Adobe Illustrator 19.2.0, SVG Export Plug-In . SVG Version: 6.00 Build 0)  -->
<svg version="1.1" id="Слой_1" xmlns="http://www.w3.org/2000/svg" xmlns:xlink="http://www.w3.org/1999/xlink" x="0px" y="0px"
	 viewBox="0 0 342 163.2" style="enable-background:new 0 0 342 163.2;" xml:space="preserve">
<style type="text/css">
	.st0{enable-background:new    ;}
</style>
<g class="st0">
	<path d="M19.9,75C7.3,75,0.5,68.1,0,53.9h13.1c0.4,6,2.1,8.5,6.5,8.5c4.9,0,6.7-3,6.7-8.8c0-3.4-0.5-5.7-2-7.3
		c-1.1-1.2-2.6-2-5.3-2.7l-2.7-0.7c-6-1.7-9.1-3.3-11.7-7C1.8,32.1,0.9,26.6,0.9,20C0.9,6.7,7.8,0,20.2,0c12.2,0,18.2,5.9,19.1,20.2
		H25.9c-0.4-5.8-1.7-8.1-5.8-8.1s-5.9,2.5-5.9,7.7c0,2.8,0.4,5.2,1.2,6.5c1.1,1.5,2.6,2.1,5.6,3l2.5,0.7c6,1.8,9.2,3.2,11.6,5.8
		c3.4,3.7,4.5,9.4,4.5,17.2C39.7,68.9,32.3,75,19.9,75z"/>
	<path d="M66.7,74.8c-12.4,0-20.1-6.2-20.1-22.3V0.7H60v51.5c0,7.3,1.4,10.2,6.6,10.2c5.1,0,6.5-2.8,6.5-10.2V0.7h13.5v52
		C86.7,68.6,79,74.8,66.7,74.8z"/>
	<path d="M122.7,74.2l-9.2-29.4h-3.9v29.4H96.2V0.7H117c13.3,0,18.6,7.8,18.6,20.8v1.8c0,10.9-3.9,16.1-9.7,18.8l10.9,32.1H122.7z
		 M121.7,22.7c0-6.4-1.9-9.5-6.9-9.5h-5.3v20h5.3c4.6,0,6.9-3.2,6.9-9.5V22.7z"/>
	<path d="M167.4,74.2H156L138.7,0.7h14l8.1,39.7l1.2,8.9l1.2-8.9l7.7-39.7h13.6L167.4,74.2z"/>
	<path d="M189.9,74.2V0.7h13.5v73.5H189.9z"/>
	<path d="M237.8,74.2h-11.5L209,0.7h14l8.1,39.7l1.2,8.9l1.2-8.9l7.7-39.7h13.6L237.8,74.2z"/>
	<path d="M288.6,74.2l-2.5-11.8h-14.8l-2.4,11.8h-13.4l17.1-73.5h12L302,74.2H288.6z M279.9,32.9l-1.4-8.1l-1.3,8.1l-3.7,18.2h10.3
		L279.9,32.9z"/>
	<path d="M307.3,74.2V0.7h13.5v61.1H342v12.6L307.3,74.2L307.3,74.2z"/>
</g>
<g class="st0">
	<path d="M32,163.1l-11.2-30.4l-4,7.5v23.1H3.1V89.5h13.5v28.7l14.2-28.7h14.1L30,117.7l16.3,45.4H32z"/>
	<path d="M51.4,163.1V89.5h13.5v73.5H51.4z"/>
	<path d="M97.6,102v61.1H84.1V102H71.2V89.5h39.2v12.6L97.6,102L97.6,102z"/>
</g>
</svg>
